<?xml version="1.0" standalone="no"?>
<!DOCTYPE svg PUBLIC "-//W3C//DTD SVG 20010904//EN"
 "http://www.w3.org/TR/2001/REC-SVG-20010904/DTD/svg10.dtd">
<svg version="1.0" xmlns="http://www.w3.org/2000/svg"
 width="130.000000pt" height="130.000000pt" viewBox="0 0 130.000000 130.000000"
 preserveAspectRatio="xMidYMid meet">
<metadata>
Created by potrace 1.14, written by Peter Selinger 2001-2017
</metadata>
<g transform="translate(0.000000,130.000000) scale(0.100000,-0.100000)"
fill="#000000" stroke="none">
<path d="M58 1285 c-15 -9 -32 -24 -38 -35 -6 -12 -10 -223 -10 -602 0 -636
-2 -612 57 -637 19 -8 98 -11 248 -9 188 3 220 5 220 18 0 13 -35 16 -232 20
-127 3 -233 7 -236 10 -25 28 -27 75 -27 600 0 551 2 581 34 602 6 4 158 8
338 8 l326 0 4 -90 c4 -123 15 -134 138 -138 88 -4 89 -4 92 -30 2 -16 9 -27
18 -27 11 0 15 11 14 43 -1 42 -6 48 -117 160 l-117 117 -343 2 c-288 2 -346
0 -369 -12z m804 -132 c43 -43 78 -81 78 -85 0 -12 -96 -9 -123 3 -14 6 -30
22 -36 36 -12 27 -15 123 -4 123 4 0 43 -35 85 -77z"/>
<path d="M158 1159 c-13 -7 -18 -23 -18 -57 0 -73 0 -73 141 -70 l124 3 3 53
c5 78 -2 82 -127 82 -58 0 -114 -5 -123 -11z m214 -59 c3 -17 2 -32 0 -35 -3
-3 -47 -5 -99 -5 l-93 0 0 35 0 35 94 0 94 0 4 -30z"/>
<path d="M812 895 c-17 -14 -34 -25 -39 -25 -5 0 -19 -10 -30 -22 -16 -17 -23
-40 -26 -93 -3 -38 -8 -84 -12 -102 -6 -26 -3 -36 19 -58 14 -14 26 -32 26
-40 0 -7 16 -34 35 -59 38 -50 46 -92 18 -99 -10 -3 -46 -10 -80 -17 -75 -15
-117 -39 -143 -82 -17 -28 -20 -51 -20 -139 0 -90 3 -110 19 -130 l19 -24 321
-3 321 -3 25 25 c24 24 25 31 25 137 0 162 -23 192 -172 223 -42 9 -80 16 -83
16 -16 0 -1 56 24 88 16 20 32 48 36 62 4 14 16 32 27 41 19 15 20 21 11 128
-11 125 -24 153 -84 183 -25 13 -58 18 -121 18 -78 0 -89 -3 -116 -25z m249
-44 c26 -26 29 -37 29 -89 0 -42 -4 -61 -14 -65 -10 -4 -15 7 -19 39 -7 69
-14 72 -133 72 -95 0 -106 -2 -119 -21 -8 -12 -15 -36 -15 -54 0 -23 -5 -33
-15 -33 -12 0 -15 13 -15 60 0 56 2 61 27 71 15 5 33 19 40 29 12 18 26 20
109 20 92 0 97 -1 125 -29z m-49 -80 c4 -1 8 -25 10 -53 l3 -53 43 1 c37 1 42
-2 42 -21 0 -14 -8 -25 -19 -28 -12 -3 -21 -17 -25 -40 -8 -45 -55 -93 -104
-106 -77 -22 -164 30 -178 106 -4 23 -13 37 -25 40 -12 3 -19 14 -19 29 0 27
19 31 50 12 28 -17 40 2 40 63 0 25 2 48 4 50 4 3 151 3 178 0z m-12 -366 c0
-23 -8 -35 -36 -53 l-35 -23 -39 22 c-33 19 -40 28 -40 53 l0 31 75 0 75 0 0
-30z m-150 -71 c22 -15 37 -30 34 -35 -10 -17 -41 -9 -67 19 -47 49 -30 57 33
16z m210 19 c0 -15 -55 -63 -71 -63 -35 0 -29 19 13 44 44 27 58 31 58 19z
m-310 -12 c0 -15 73 -81 97 -87 32 -8 35 -29 22 -126 l-12 -88 -73 0 -73 0 -3
43 c-2 29 -8 42 -18 42 -11 0 -16 -13 -18 -43 -3 -42 -4 -43 -35 -40 -32 3
-32 4 -41 70 -11 85 -1 151 27 184 30 34 127 68 127 45z m435 -11 c11 -4 31
-20 45 -35 22 -24 25 -37 28 -120 4 -109 -5 -135 -48 -135 -29 0 -30 2 -30 46
0 38 -3 45 -17 42 -13 -2 -19 -15 -21 -46 l-3 -42 -69 0 c-78 0 -70 -10 -89
108 -12 73 -8 88 28 107 35 18 91 71 91 85 0 12 41 7 85 -10z m-240 -75 c0
-11 -7 -21 -16 -23 -18 -3 -33 23 -23 39 10 17 39 5 39 -16z m-1 -102 c4 -27
10 -63 13 -81 5 -31 4 -32 -32 -32 -30 0 -35 3 -31 18 2 9 8 42 11 72 4 30 9
58 12 63 11 18 21 3 27 -40z"/>
<path d="M145 840 c-16 -26 15 -30 251 -30 237 0 244 1 244 20 0 19 -7 20
-244 20 -153 0 -247 -4 -251 -10z"/>
<path d="M145 700 c-16 -26 15 -30 251 -30 237 0 244 1 244 20 0 19 -7 20
-244 20 -153 0 -247 -4 -251 -10z"/>
<path d="M145 560 c-16 -26 15 -30 251 -30 237 0 244 1 244 20 0 19 -7 20
-244 20 -153 0 -247 -4 -251 -10z"/>
<path d="M145 420 c-15 -24 11 -30 126 -30 109 0 120 2 117 18 -3 15 -18 17
-120 20 -72 2 -119 -1 -123 -8z"/>
</g>
</svg>
